<svg xmlns="http://www.w3.org/2000/svg" width="16" height="16" viewBox="0 0 16 16">
    <!-- Sfondo arrotondato -->
    <rect width="16" height="16" rx="3.2" ry="3.2" fill="#239db0"/>

    <!-- Icona wallet centrata e ridimensionata -->
    <g transform="translate(2.4000000000000004, 2.4000000000000004) scale(0.4666666666666666)">
        <path d="M21 18v1c0 1.1-.9 2-2 2H5c-1.11 0-2-.9-2-2V5c0-1.1.89-2 2-2h14c1.1 0 2 .9 2 2v1h-9c-1.11 0-2 .9-2 2v8c0 1.1.89 2 2 2h9zm-9-2h10V8H12v8zm4-2.5c-.83 0-1.5-.67-1.5-1.5s.67-1.5 1.5-1.5 1.5.67 1.5 1.5-.67 1.5-1.5 1.5z" fill="#ffffff"/>
    </g>
</svg>