<svg xmlns="http://www.w3.org/2000/svg" width="128" height="128" viewBox="0 0 128 128">
    <!-- Sfondo arrotondato -->
    <rect width="128" height="128" rx="25.6" ry="25.6" fill="#239db0"/>

    <!-- Icona wallet centrata e ridimensionata -->
    <g transform="translate(19.200000000000003, 19.200000000000003) scale(3.733333333333333)">
        <path d="M21 18v1c0 1.1-.9 2-2 2H5c-1.11 0-2-.9-2-2V5c0-1.1.89-2 2-2h14c1.1 0 2 .9 2 2v1h-9c-1.11 0-2 .9-2 2v8c0 1.1.89 2 2 2h9zm-9-2h10V8H12v8zm4-2.5c-.83 0-1.5-.67-1.5-1.5s.67-1.5 1.5-1.5 1.5.67 1.5 1.5-.67 1.5-1.5 1.5z" fill="#ffffff"/>
    </g>
</svg>