<?xml version="1.0" encoding="utf-8"?>
<!-- Generator: Adobe Illustrator 27.5.0, SVG Export Plug-In . SVG Version: 6.00 Build 0)  -->
<svg version="1.1" id="Livello_1" xmlns="http://www.w3.org/2000/svg" xmlns:xlink="http://www.w3.org/1999/xlink" x="0px" y="0px"
	 viewBox="0 0 4560 960" style="enable-background:new 0 0 4560 960;" xml:space="preserve">
<path d="M0,540v420h192l288-288l288,288h192V540H0z M768,0L480,288L192,0H0v420h960V0H768z"/>
<g>
	<g>
		<path d="M1977.8,792h106.7V152h-131.6l-226.7,528h-8.9l-225.8-528H1360v640h106.7V340.4h8.9L1669.3,792h105.8l193.8-451.6h8.9
			L1977.8,792L1977.8,792z M2482.4,792h101.3V332.4h-104.9v256.9c0,93.3-57.8,133.3-123.6,133.3c-58.7,0-96.9-31.1-96.9-97.8V332.4
			h-104.9v303.1c0,107.6,70.2,164.4,172.4,164.4c94.2,0,131.6-44.4,147.6-70.2h8.9L2482.4,792L2482.4,792z M3254.5,792h105.8V479.1
			c0-102.2-70.2-155.6-163.6-155.6c-88.9,0-129.8,41.8-151.1,77.3h-8.9c-15.1-32-54.2-77.3-140.4-77.3
			c-82.7,0-115.6,34.7-133.3,63.1h-8.9v-54.2h-101.3V792h104.9V523.6c0-83.6,47.1-120,110.2-120c55.1,0,85.3,32,85.3,83.6V792H3059
			V523.6c0-83.6,47.1-120,110.2-120c55.1,0,85.3,32,85.3,83.6V792z M3788.4,562.7c0,103.1-54.2,160.9-129.8,160.9
			c-76.4,0-129.8-57.8-129.8-160.9c0-104,53.3-160.9,129.8-160.9C3734.2,401.8,3788.4,459.6,3788.4,562.7 M3895.1,562.7
			c0-156.4-95.1-239.1-210.7-239.1c-81.8,0-124.4,39.1-141.3,62.2h-8.9V152h-104.9v640h72l22.2-63.1h8.9
			c22.2,30.2,65.8,71.1,152,71.1C3800,800,3895.1,718.2,3895.1,562.7 M3944.4,792h104.9V152h-104.9V792z M4456.9,518.2h-250.7
			c5.3-67.6,49.8-120.9,128-120.9C4413.3,397.3,4453.3,450.7,4456.9,518.2 M4560,586.7v-35.6c0-139.6-87.1-228.4-225.8-228.4
			c-136.9,0-235.6,88.9-235.6,240S4197.3,800,4335.9,800s201.8-83.6,216.9-144.9v-13.3h-98.7c-8.9,37.3-40.9,85.3-118.2,85.3
			c-80,0-128-60.4-129.8-140.4L4560,586.7L4560,586.7z"/>
	</g>
</g>
</svg>
