<?xml version="1.0" encoding="utf-8"?>
<!-- Generator: Adobe Illustrator 27.5.0, SVG Export Plug-In . SVG Version: 6.00 Build 0)  -->
<svg version="1.1" id="Livello_1" xmlns="http://www.w3.org/2000/svg" xmlns:xlink="http://www.w3.org/1999/xlink" x="0px" y="0px"
	 viewBox="0 0 1600 2120" style="enable-background:new 0 0 1600 2120;" xml:space="preserve">
<style type="text/css">
	.st0{fill:#EBEBE1;}
	.st1{clip-path:url(#SVGID_00000060721495478367623600000014930026820103323805_);fill:#EBEBE1;}
</style>
<path class="st0" d="M0,900v700h320l480-480l480,480h320V900H0z M1280,0L800,480L320,0H0v700h1600V0H1280z"/>
<g>
	<defs>
		<rect id="SVGID_1_" width="1600" height="2120"/>
	</defs>
	<clipPath id="SVGID_00000166651428072865949150000012453790402157573765_">
		<use xlink:href="#SVGID_1_"  style="overflow:visible;"/>
	</clipPath>
	<path style="clip-path:url(#SVGID_00000166651428072865949150000012453790402157573765_);fill:#EBEBE1;" d="M308.9,2116h53.3v-320
		h-65.8l-113.3,264h-4.4L65.8,1796H0v320h53.3v-225.8h4.4l96.9,225.8h52.9l96.9-225.8h4.4V2116z M561.2,2116h50.7v-229.8h-52.4
		v128.4c0,46.7-28.9,66.7-61.8,66.7c-29.3,0-48.4-15.6-48.4-48.9v-146.2h-52.4v151.6c0,53.8,35.1,82.2,86.2,82.2
		c47.1,0,65.8-22.2,73.8-35.1h4.4V2116z M947.3,2116h52.9v-156.4c0-51.1-35.1-77.8-81.8-77.8c-44.4,0-64.9,20.9-75.6,38.7h-4.4
		c-7.6-16-27.1-38.7-70.2-38.7c-41.3,0-57.8,17.3-66.7,31.6H697v-27.1h-50.7V2116h52.4v-134.2c0-41.8,23.6-60,55.1-60
		c27.6,0,42.7,16,42.7,41.8V2116h52.9v-134.2c0-41.8,23.6-60,55.1-60c27.6,0,42.7,16,42.7,41.8V2116z M1214.2,2001.3
		c0,51.6-27.1,80.4-64.9,80.4c-38.2,0-64.9-28.9-64.9-80.4c0-52,26.7-80.4,64.9-80.4C1187.1,1920.9,1214.2,1949.8,1214.2,2001.3
		 M1267.6,2001.3c0-78.2-47.6-119.6-105.3-119.6c-40.9,0-62.2,19.6-70.7,31.1h-4.4V1796h-52.4v320h36l11.1-31.6h4.4
		c11.1,15.1,32.9,35.6,76,35.6C1220,2120,1267.6,2079.1,1267.6,2001.3 M1292.2,2116h52.4v-320h-52.4V2116z M1533.1,1801.3h14v-5.3
		h-34.8v5.3h13.9v34.7h6.8V1801.3z M1593.3,1836h6.7v-40h-8.2l-14.2,33h-0.6l-14.1-33h-8.2v40h6.7v-28.2h0.6l12.1,28.2h6.6
		l12.1-28.2h0.6V1836z M1548.4,1979.1h-125.3c2.7-33.8,24.9-60.4,64-60.4C1526.7,1918.7,1546.7,1945.3,1548.4,1979.1 M1600,2013.3
		v-17.8c0-69.8-43.6-114.2-112.9-114.2c-68.4,0-117.8,44.4-117.8,120c0,75.6,49.3,118.7,118.7,118.7s100.9-41.8,108.4-72.4v-6.7
		h-49.3c-4.4,18.7-20.4,42.7-59.1,42.7c-40,0-64-30.2-64.9-70.2H1600z"/>
</g>
</svg>
